<svg xmlns="http://www.w3.org/2000/svg" width="1500" height="940" viewBox="0 0 1500 940">
  <rect width="1500" height="940" fill="none"/>
  <g fill="none" stroke-linecap="round" stroke-linejoin="round">
    <g opacity=".20" stroke="#76FFB2">
      <path d="M-164 80H256V249H586V437H946V644"/>
      <path d="M-157 87H263V256H593V444H953V651"/>
      <path d="M-150 94H270V263H600V451H960V658"/>
      <path d="M-143 101H277V270H607V458H967V665"/>
      <path d="M-136 108H284V277H614V465H974V672"/>
      <path d="M1156 165H1606M1156 165V343H826V531H496"/>
      <path d="M1163 172H1613M1163 172V350H833V538H503"/>
      <path d="M1170 179H1620M1170 179V357H840V545H510"/>
      <path d="M1177 186H1627M1177 186V364H847V552H517"/>
      <path d="M1184 193H1634M1184 193V371H854V559H524"/>
    </g>
    <g opacity=".22" stroke="#91EDFF">
      <path d="M-104 719H286V568H646V795H1036"/>
      <path d="M-97 726H293V575H653V802H1043"/>
      <path d="M-90 733H300V582H660V809H1050"/>
      <path d="M-83 740H307V589H667V816H1057"/>
      <path d="M-127 306H233V250H503V161H863"/>
      <path d="M-120 313H240V257H510V168H870"/>
      <path d="M-113 320H247V264H517V175H877"/>
      <path d="M1133 239H1463M1133 239V329H803V407H443"/>
      <path d="M1140 246H1470M1140 246V336H810V414H450"/>
      <path d="M1147 253H1477M1147 253V343H817V421H457"/>
    </g>
    <g opacity=".16" stroke="#315DFF">
      <path d="M292 452V575H533V363H773"/>
      <path d="M299 459V582H540V370H780"/>
      <path d="M306 466V589H547V377H787"/>
      <path d="M730 928H520V840H220V730H-90"/>
      <path d="M738 936H528V848H228V738H-82"/>
    </g>
    <g opacity=".30" fill="#76FFB2">
      <circle cx="591" cy="256" r="4"/>
      <circle cx="1161" cy="350" r="4"/>
      <circle cx="238" cy="258" r="4"/>
      <circle cx="538" cy="459" r="4"/>
      <circle cx="646" cy="795" r="4"/>
      <circle cx="1138" cy="336" r="4"/>
    </g>
    <g opacity=".24" fill="#91EDFF">
      <circle cx="286" cy="568" r="3"/>
      <circle cx="233" cy="250" r="3"/>
      <circle cx="826" cy="531" r="3"/>
      <circle cx="503" cy="161" r="3"/>
      <circle cx="803" cy="407" r="3"/>
    </g>
  </g>
</svg>
