<svg xmlns="http://www.w3.org/2000/svg" width="820" height="1180" viewBox="0 0 820 1180">
  <rect width="820" height="1180" fill="none"/>
  <g fill="none" stroke-linecap="round" stroke-linejoin="round">
    <g opacity=".18" stroke="#8AF2FF" stroke-width="6">
      <path d="M-30 78H184V230H330L420 320H705"/>
      <path d="M610 42H470V168H350V238H198"/>
      <path d="M20 410H178V500H326V420H520"/>
      <path d="M-40 682H132V586H276V520H438"/>
      <path d="M780 326H635V438H498V514H330V646"/>
      <path d="M760 782H542V690H366V596H180"/>
      <path d="M-20 930H166V822H308V902H472"/>
      <path d="M726 1088H604V990H458V1068H262"/>
    </g>
    <g opacity=".22" stroke="#38FF92" stroke-width="3">
      <path d="M-36 122H190V244H318L410 336H724"/>
      <path d="M608 70H498V154H394V226H242"/>
      <path d="M-20 444H200V524H344V454H528"/>
      <path d="M772 362H666V460H522V542H360V662"/>
      <path d="M-24 710H154V618H292V552H430"/>
      <path d="M758 820H530V716H348V630H196"/>
      <path d="M-18 964H184V850H328V926H486"/>
      <path d="M728 1124H630V1024H482V1102H286"/>
    </g>
    <g opacity=".38" fill="#38FF92" stroke="#061611" stroke-width="5">
      <circle cx="184" cy="78" r="12"/>
      <circle cx="330" cy="230" r="10"/>
      <circle cx="705" cy="320" r="13"/>
      <circle cx="470" cy="168" r="9"/>
      <circle cx="178" cy="500" r="10"/>
      <circle cx="635" cy="438" r="12"/>
      <circle cx="276" cy="586" r="9"/>
      <circle cx="542" cy="690" r="11"/>
      <circle cx="166" cy="822" r="12"/>
      <circle cx="458" cy="1068" r="10"/>
    </g>
    <g opacity=".36" fill="#8AF2FF" stroke="#061611" stroke-width="5">
      <circle cx="190" cy="244" r="8"/>
      <circle cx="394" cy="226" r="7"/>
      <circle cx="200" cy="524" r="8"/>
      <circle cx="522" cy="542" r="8"/>
      <circle cx="154" cy="618" r="7"/>
      <circle cx="348" cy="630" r="8"/>
      <circle cx="328" cy="926" r="8"/>
      <circle cx="630" cy="1024" r="8"/>
    </g>
  </g>
</svg>
